REM GENRE Metal
REM DATE 2010
REM DISCID BE0FD20F
REM COMMENT "ExactAudioCopy v1.0b3"
PERFORMER "Apocalyptica"
TITLE "7th Symphony (Japanese Edition)"
FILE "Apocalyptica - 7th Symphony (Japanese Edition).flac" WAVE
  TRACK 01 AUDIO
    TITLE "At the Gates of Manala"
    PERFORMER "Apocalyptica"
    INDEX 01 00:00:00
  TRACK 02 AUDIO
    TITLE "End of Me [feat. Gavin Rossdale]"
    PERFORMER "Apocalyptica"
    INDEX 01 07:03:35
  TRACK 03 AUDIO
    TITLE "Not Strong Enough [feat. Brent Smith]"
    PERFORMER "Apocalyptica"
    INDEX 01 10:32:04
  TRACK 04 AUDIO
    TITLE "2010 [feat. Dave Lombardo]"
    PERFORMER "Apocalyptica"
    INDEX 00 14:07:73
    INDEX 01 14:08:43
  TRACK 05 AUDIO
    TITLE "Through Paris in a Sportscar"
    PERFORMER "Apocalyptica"
    INDEX 01 18:39:28
  TRACK 06 AUDIO
    TITLE "Beautiful"
    PERFORMER "Apocalyptica"
    INDEX 01 22:31:51
  TRACK 07 AUDIO
    TITLE "Broken Pieces [feat. Lacey]"
    PERFORMER "Apocalyptica"
    INDEX 00 24:49:54
    INDEX 01 24:50:35
  TRACK 08 AUDIO
    TITLE "On the Rooftop with Quasimodo"
    PERFORMER "Apocalyptica"
    INDEX 01 28:44:72
  TRACK 09 AUDIO
    TITLE "Bring them to Light [feat. Joseph Duplantier]"
    PERFORMER "Apocalyptica"
    INDEX 01 33:44:33
  TRACK 10 AUDIO
    TITLE "Sacra"
    PERFORMER "Apocalyptica"
    INDEX 00 38:26:52
    INDEX 01 38:29:05
  TRACK 11 AUDIO
    TITLE "Rage of Poseidon"
    PERFORMER "Apocalyptica"
    INDEX 01 42:51:38
  TRACK 12 AUDIO
    TITLE "The Shadow of Venus"
    PERFORMER "Apocalyptica"
    INDEX 01 51:32:64
  TRACK 13 AUDIO
    TITLE "Spiral Architect [Black Sabbath Cover]"
    PERFORMER "Apocalyptica"
    INDEX 01 57:38:01
  TRACK 14 AUDIO
    TITLE "Path [Acoustic at XM Radio]"
    PERFORMER "Apocalyptica"
    INDEX 01 60:55:00
  TRACK 15 AUDIO
    TITLE "The Unforgiven [Acoustic at XM Radio]"
    PERFORMER "Apocalyptica"
    INDEX 00 63:32:74
    INDEX 01 63:34:21
